Patient4_TMGait_0pt3_01_left_26_GRF.mot
version=1
nRows=38
nColumns=19
inDegrees=no
endheader
time	F1x	F1y	F1z	M1x	M1y	M1z	F2x	F2y	F2z	M2x	M2y	M2z	EC1x	EC1y	EC1z	EC2x	EC2y	EC2z
48.85	0.47821	1.8528	0.53652	-0.76345	-2.8667	0.98888	-3.8209	711.1457	-44.1567	250.1898	46.5652	668.9497	-0.0592	0.0182	-0.0073	-0.0462	0.0165	0.9585
48.8696	0.2829	1.2946	0.42623	-0.54106	-2.0371	0.83846	-6.3519	734.5624	-44.4266	258.2243	47.3792	689.5817	-0.0592	0.0182	-0.0073	-0.0462	0.0165	0.9585
48.8893	0.11294	0.8352	0.30577	-0.35001	-1.3039	0.73099	-8.8411	764.4256	-44.6814	268.6746	48.2079	715.7175	-0.0592	0.0182	-0.0073	-0.0462	0.0165	0.9585
48.9089	-0.016909	0.50585	0.19318	-0.20411	-0.7241	0.6688	-11.0363	799.0106	-44.8412	280.9792	48.8918	745.7328	-0.0592	0.0182	-0.0073	-0.0462	0.0165	0.9585
48.9286	-0.10757	0.30116	0.10217	-0.10409	-0.31163	0.63906	-12.7592	835.1539	-44.8618	294.0162	49.3061	776.7416	-0.0592	0.0182	-0.0073	-0.0462	0.0165	0.9585
48.9482	-0.16909	0.19238	0.040532	-0.041666	-0.054723	0.61351	-13.9303	868.7129	-44.7442	306.2644	49.3824	805.0184	-0.0592	0.0182	-0.0073	-0.0462	0.0165	0.9585
48.9679	-0.21337	0.13297	0.0096331	-0.0013563	0.072426	0.56022	-14.5454	895.4347	-44.4998	316.1268	49.0803	826.7827	-0.0592	0.0182	-0.0073	-0.0462	0.0165	0.9585
48.9875	-0.25234	0.059392	0.0068399	0.038125	0.099754	0.4485	-14.6405	911.8545	-44.135	322.2733	48.3705	838.9972	-0.0592	0.0182	-0.0073	-0.0462	0.0165	0.9585
49.0071	-0.29467	-0.096791	0.028547	0.10123	0.056521	0.23494	-14.2402	915.9191	-43.6713	323.893	47.2531	839.8993	-0.0592	0.0182	-0.0073	-0.0462	0.0165	0.9585
49.0268	-0.34303	-0.39396	0.067557	0.21329	-0.027804	-0.12661	-13.3258	907.3855	-43.1121	320.8578	45.7225	829.3374	-0.0592	0.0182	-0.0073	-0.0462	0.0165	0.9585
49.0464	-0.39454	-0.88423	0.11144	0.39456	-0.12323	-0.68102	-11.8548	887.768	-42.4418	313.7044	43.7731	808.7155	-0.0592	0.0182	-0.0073	-0.0462	0.0165	0.9585
49.0661	-0.44183	-1.6017	0.14596	0.65621	-0.20291	-1.4588	-9.7896	859.9163	-41.6588	303.4732	41.4354	780.6116	-0.0592	0.0182	-0.0073	-0.0462	0.0165	0.9585
49.0857	-0.46953	-2.5468	0.15765	0.99695	-0.24633	-2.4544	-7.1176	827.4183	-40.7968	291.4843	38.7893	748.2448	-0.0592	0.0182	-0.0073	-0.0462	0.0165	0.9585
49.1054	-0.45545	-3.6538	0.13249	1.3928	-0.23077	-3.6052	-3.8644	793.9652	-39.9261	279.101	35.9582	714.9138	-0.0592	0.0182	-0.0073	-0.0462	0.0165	0.9585
49.125	-0.37868	-4.76	0.054631	1.7834	-0.13041	-4.7598	-0.079481	762.8469	-39.1274	267.5405	33.0719	683.5419	-0.0592	0.0182	-0.0073	-0.0462	0.0165	0.9585
49.1446	-0.21841	-5.5743	-0.097173	2.0595	0.085057	-5.6333	4.1651	736.6304	-38.4646	257.7543	30.2373	656.399	-0.0592	0.0182	-0.0073	-0.0462	0.0165	0.9585
49.1643	0.047799	-5.6357	-0.34106	2.0465	0.44173	-5.7632	8.7724	716.9782	-37.9772	250.3611	27.5354	634.9552	-0.0592	0.0182	-0.0073	-0.0462	0.0165	0.9585
49.1839	0.44143	-4.2853	-0.68564	1.4934	0.95223	-4.4781	13.6161	704.5647	-37.6957	245.6134	25.0348	619.8213	-0.0592	0.0182	-0.0073	-0.0462	0.0165	0.9585
49.2036	0.97524	-0.66746	-1.122	0.076295	1.6051	-0.89952	18.5216	699.0396	-37.6579	243.384	22.8143	610.7332	-0.0592	0.0182	-0.0073	-0.0462	0.0165	0.9585
49.2232	1.6384	6.2195	-1.6107	-2.577	2.3501	6.0046	23.2663	699.073	-37.9027	243.1833	20.9616	606.6048	-0.0592	0.0182	-0.0073	-0.0462	0.0165	0.9585
49.2429	2.3763	17.3833	-2.0651	-6.8344	3.0731	17.291	27.5959	702.5228	-38.4443	244.2233	19.5527	605.6728	-0.0592	0.0182	-0.0073	-0.0462	0.0165	0.9585
49.2625	3.0684	33.5715	-2.3334	-12.9598	3.5696	33.7835	31.2461	706.7279	-39.2538	245.5288	18.635	605.7439	-0.0592	0.0182	-0.0073	-0.0462	0.0165	0.9585
49.2821	3.4952	54.8674	-2.1861	-20.9564	3.5188	55.6553	33.9851	708.9052	-40.2485	246.0865	18.2069	604.5147	-0.0592	0.0182	-0.0073	-0.0462	0.0165	0.9585
49.3018	3.2237	80.2272	-1.3336	-30.3933	2.4568	81.947	35.6615	706.6075	-41.3033	245.0151	18.2122	599.9406	-0.0592	0.0182	-0.0073	-0.0462	0.0165	0.9585
49.3214	1.7891	107.257	0.47168	-40.3348	-0.043533	110.3244	36.2495	698.1582	-42.2834	241.7232	18.5479	590.594	-0.0592	0.0182	-0.0073	-0.0462	0.0165	0.9585
49.3411	-0.85655	133.5682	3.1459	-49.8703	-3.9077	138.4073	35.8886	683.0245	-43.0727	236.0394	19.0736	575.9705	-0.0592	0.0182	-0.0073	-0.0462	0.0165	0.9585
49.3607	-4.5855	158.7253	6.3758	-58.8476	-8.7592	165.7372	34.8654	661.838	-43.5732	228.2125	19.6213	556.5175	-0.0592	0.0182	-0.0073	-0.0462	0.0165	0.9585
49.3804	-9.1806	183.8877	9.8165	-67.7267	-14.1573	193.4297	33.5017	635.8784	-43.6522	218.7266	19.9878	533.2369	-0.0592	0.0182	-0.0073	-0.0462	0.0165	0.9585
49.4	-14.3494	210.3754	13.1686	-77.0311	-19.6806	222.6984	32.034	606.4273	-43.146	208.0673	19.9714	507.1611	-0.0592	0.0182	-0.0073	-0.0462	0.0165	0.9585
49.4196	-19.7264	238.8923	16.2131	-87.051	-24.96	254.076	30.5376	574.3961	-41.9544	196.5844	19.4721	479.0467	-0.0592	0.0182	-0.0073	-0.0462	0.0165	0.9585
49.4393	-24.8637	269.4512	18.8617	-97.81	-29.7285	287.3552	28.9439	540.3025	-40.101	184.4797	18.5357	449.3474	-0.0592	0.0182	-0.0073	-0.0462	0.0165	0.9585
49.4589	-29.3265	301.6103	21.1592	-109.1507	-33.8619	321.851	27.1331	504.4573	-37.7099	171.8726	17.3063	418.3533	-0.0592	0.0182	-0.0073	-0.0462	0.0165	0.9585
49.4786	-32.7845	334.7547	23.249	-120.8431	-37.3772	356.7286	25.0282	467.1862	-34.9334	158.8833	15.9378	386.3625	-0.0592	0.0182	-0.0073	-0.0462	0.0165	0.9585
49.4982	-35.0529	368.3954	25.3061	-132.6991	-40.3787	391.3417	22.6515	429.0195	-31.9003	145.7008	14.5287	353.8291	-0.0592	0.0182	-0.0073	-0.0462	0.0165	0.9585
49.5179	-36.1012	402.2503	27.4512	-144.6074	-42.9778	425.3388	20.138	390.795	-28.7162	132.6182	13.1172	321.4389	-0.0592	0.0182	-0.0073	-0.0462	0.0165	0.9585
49.5375	-36.037	436.0032	29.6893	-156.4508	-45.2227	458.4318	17.6884	353.6978	-25.4907	120.0439	11.7164	290.1427	-0.0592	0.0182	-0.0073	-0.0462	0.0165	0.9585
49.5571	-35.0723	468.9199	31.9052	-167.9668	-47.0827	490.0047	15.5085	319.1811	-22.3484	108.4716	10.3449	261.1041	-0.0592	0.0182	-0.0073	-0.0462	0.0165	0.9585
49.5768	-33.4834	499.6498	33.8984	-178.6739	-48.462	518.8838	13.757	288.7466	-19.4222	98.4024	9.0386	235.525	-0.0592	0.0182	-0.0073	-0.0462	0.0165	0.9585
